<svg width="36" height="29" viewBox="0 0 36 29" fill="none" xmlns="http://www.w3.org/2000/svg">
<path d="M2.5714 13.1805H17.9998V15.8167H2.5714V13.1805Z" fill="white"/>
<path d="M0 6.59027H12.857V9.22638H0V6.59027Z" fill="white"/>
<path d="M35.8959 13.9793L32.0388 4.7529C31.9398 4.51576 31.775 4.31364 31.565 4.17164C31.3549 4.02964 31.1088 3.95402 30.8572 3.95416H27.0001V1.31805C27.0001 0.968485 26.8647 0.633233 26.6235 0.386049C26.3824 0.138866 26.0554 0 25.7144 0H5.14323V2.63611H24.4287V19.1856C23.8429 19.5343 23.3301 19.9986 22.9201 20.5514C22.5102 21.1043 22.211 21.7349 22.0399 22.4069H13.9605C13.6476 21.1644 12.9034 20.0816 11.8674 19.3614C10.8314 18.6412 9.57479 18.3331 8.33305 18.4948C7.0913 18.6565 5.9497 19.2769 5.12224 20.2397C4.29478 21.2026 3.83826 22.4418 3.83826 23.725C3.83826 25.0082 4.29478 26.2474 5.12224 27.2102C5.9497 28.1731 7.0913 28.7935 8.33305 28.9552C9.57479 29.1169 10.8314 28.8087 11.8674 28.0885C12.9034 27.3683 13.6476 26.2855 13.9605 25.043H22.0399C22.3196 26.1742 22.9592 27.1775 23.8576 27.8942C24.7559 28.6109 25.8618 29 27.0001 29C28.1384 29 29.2443 28.6109 30.1426 27.8942C31.041 27.1775 31.6806 26.1742 31.9603 25.043H34.7143C35.0553 25.043 35.3823 24.9042 35.6234 24.657C35.8645 24.4098 36 24.0745 36 23.725V14.4986C36.0001 14.32 35.9646 14.1433 35.8959 13.9793ZM9.00032 26.3611C8.49175 26.3611 7.9946 26.2065 7.57173 25.9168C7.14887 25.6272 6.81928 25.2155 6.62466 24.7338C6.43004 24.2521 6.37912 23.7221 6.47833 23.2107C6.57755 22.6993 6.82245 22.2296 7.18207 21.861C7.54169 21.4923 7.99987 21.2412 8.49867 21.1395C8.99747 21.0378 9.51449 21.09 9.98435 21.2895C10.4542 21.4891 10.8558 21.8269 11.1384 22.2604C11.4209 22.6939 11.5717 23.2036 11.5717 23.725C11.571 24.4239 11.2999 25.094 10.8178 25.5882C10.3357 26.0824 9.68209 26.3604 9.00032 26.3611ZM27.0001 6.59027H30.0086L32.7652 13.1805H27.0001V6.59027ZM27.0001 26.3611C26.4915 26.3611 25.9944 26.2065 25.5715 25.9168C25.1487 25.6272 24.8191 25.2155 24.6244 24.7338C24.4298 24.2521 24.3789 23.7221 24.4781 23.2107C24.5773 22.6993 24.8222 22.2296 25.1819 21.861C25.5415 21.4923 25.9996 21.2412 26.4985 21.1395C26.9973 21.0378 27.5143 21.09 27.9841 21.2895C28.454 21.4891 28.8556 21.8269 29.1381 22.2604C29.4207 22.6939 29.5715 23.2036 29.5715 23.725C29.5708 24.4239 29.2997 25.094 28.8176 25.5882C28.3355 26.0824 27.6819 26.3604 27.0001 26.3611ZM33.4286 22.4069H31.9603C31.6771 21.2779 31.0365 20.2772 30.1388 19.5616C29.2411 18.846 28.1372 18.456 27.0001 18.4528V15.8167H33.4286V22.4069Z" fill="white"/>
</svg>
