<svg width="33" height="33" viewBox="0 0 33 33" fill="none" xmlns="http://www.w3.org/2000/svg">
<path d="M32.1626 33H30.1001C29.7994 33 29.5308 32.8979 29.2945 32.6935C29.0581 32.4892 28.9078 32.2473 28.8433 31.9677L27.4253 24.7419H15.0503L16.4683 31.9677C16.5328 32.2473 16.4844 32.4892 16.3233 32.6935C16.1621 32.8979 15.9312 33 15.6304 33H13.5679C13.2886 33 13.0308 32.8979 12.7945 32.6935C12.5581 32.4892 12.4078 32.2473 12.3433 31.9677L6.22025 1.03226C6.1558 0.731183 6.20414 0.483871 6.36527 0.290323C6.5264 0.0967742 6.75736 0 7.05814 0H25.9429C26.2007 0 26.4048 0.0806452 26.5552 0.241935C26.7056 0.403226 26.7808 0.60215 26.7808 0.83871C26.7808 0.860215 26.7915 0.887097 26.813 0.919355C26.8345 0.951613 26.8453 0.978495 26.8453 1L32.9683 31.9677C33.0328 32.2473 32.9844 32.4892 32.8233 32.6935C32.6621 32.8979 32.4419 33 32.1626 33ZM18.563 10.2903C17.5103 10.2903 16.5596 10.0914 15.711 9.69355C14.8623 9.2957 14.438 8.80645 14.438 8.22581C14.438 7.66667 14.712 7.1828 15.2598 6.77419C15.8077 6.36559 16.565 6.16129 17.5318 6.16129C18.563 6.16129 19.2076 6.2043 19.4654 6.29032C19.7232 6.37634 20.1099 6.67742 20.6255 7.19355C20.7115 7.30107 20.8081 7.45161 20.9156 7.64516C21.023 7.83871 21.1304 7.98387 21.2378 8.08064C21.3453 8.17742 21.4849 8.22581 21.6568 8.22581C21.9576 8.22581 22.2207 8.12366 22.4463 7.91935C22.6719 7.71505 22.7525 7.47312 22.688 7.19355C22.4302 6.13978 22.0381 5.40323 21.5118 4.98387C20.9854 4.56452 20.0025 4.26882 18.563 4.09677C18.563 3.73118 18.5577 3.45699 18.5469 3.27419C18.5362 3.0914 18.4986 2.8871 18.4341 2.66129C18.3697 2.43548 18.2622 2.27419 18.1119 2.17742C17.9615 2.08065 17.7681 2.03226 17.5318 2.03226C17.2954 2.03226 17.1021 2.08602 16.9517 2.19355C16.8013 2.30108 16.6939 2.47312 16.6294 2.70968C16.565 2.94624 16.5274 3.15591 16.5166 3.33871C16.5059 3.52151 16.5005 3.77419 16.5005 4.09677C14.9751 4.29032 13.9063 4.66129 13.294 5.20968C12.6817 5.75806 12.3755 6.76344 12.3755 8.22581C12.3755 9.68817 12.9395 10.7419 14.0674 11.3871C15.1953 12.0323 16.6939 12.3548 18.563 12.3548C19.6158 12.3548 20.5664 12.5591 21.4151 12.9677C22.2637 13.3763 22.688 13.8602 22.688 14.4194C22.688 14.9785 22.4141 15.4624 21.8662 15.871C21.3184 16.2796 20.5611 16.4839 19.5943 16.4839C18.563 16.4839 17.9185 16.4409 17.6607 16.3548C17.4029 16.2688 17.0161 15.9677 16.5005 15.4516C16.4146 15.3656 16.3179 15.2258 16.2105 15.0323C16.1031 14.8387 15.9956 14.6882 15.8882 14.5806C15.7808 14.4731 15.6412 14.4194 15.4693 14.4194C15.1685 14.4194 14.9053 14.5269 14.6797 14.7419C14.4541 14.957 14.3736 15.1935 14.438 15.4516C14.6958 16.5269 15.0879 17.2742 15.6143 17.6935C16.1407 18.1129 17.1236 18.3978 18.563 18.5484C18.563 18.9355 18.5684 19.2151 18.5791 19.3871C18.5899 19.5591 18.6275 19.7581 18.6919 19.9839C18.7564 20.2097 18.8584 20.371 18.9981 20.4677C19.1377 20.5645 19.3311 20.6129 19.5782 20.6129C19.8252 20.6129 20.024 20.5591 20.1744 20.4516C20.3247 20.3441 20.4322 20.172 20.4966 19.9355C20.5611 19.6989 20.5987 19.4946 20.6094 19.3226C20.6202 19.1505 20.6255 18.8925 20.6255 18.5484C22.1509 18.3763 23.2198 18.0161 23.8321 17.4677C24.4444 16.9194 24.7505 15.9032 24.7505 14.4194C24.7505 12.9785 24.1866 11.9301 23.0586 11.2742C21.9307 10.6183 20.4322 10.2903 18.563 10.2903ZM5.57572 24.7419L4.15775 31.9677C4.0933 32.2473 3.94291 32.4892 3.70658 32.6935C3.47025 32.8979 3.2017 33 2.90091 33H0.838414C0.559117 33 0.338902 32.8979 0.177769 32.6935C0.0166364 32.4892 -0.0317034 32.2473 0.0327497 31.9677L5.15677 6.06452L8.86283 24.7419H5.57572ZM21.689 26.8064L20.6578 31.9677C20.5933 32.2473 20.4429 32.4892 20.2066 32.6935C19.9703 32.8979 19.7124 33 19.4331 33H18.5308L17.3384 27.871L17.564 26.8064H21.689Z" fill="white"/>
</svg>
