<svg width="34" height="38" viewBox="0 0 34 38" fill="none" xmlns="http://www.w3.org/2000/svg">
<path d="M17 24.6667H24.3333V17.3333H17V11.8333L7.83333 21L17 30.1667V24.6667ZM29.8333 4.49999H22.17C21.4 2.37333 19.3833 0.833328 17 0.833328C14.6167 0.833328 12.6 2.37333 11.83 4.49999H4.16667C3.91 4.49999 3.67167 4.51833 3.43333 4.57333C2.84944 4.69584 2.30407 4.95842 1.84418 5.33847C1.38429 5.71852 1.02366 6.20464 0.793334 6.75499C0.61 7.17666 0.5 7.65333 0.5 8.16666V33.8333C0.5 34.3283 0.61 34.8233 0.793334 35.2633C0.976667 35.7033 1.25167 36.0883 1.58167 36.4367C2.07667 36.9317 2.71833 37.2983 3.43333 37.445C3.67167 37.4817 3.91 37.5 4.16667 37.5H29.8333C31.85 37.5 33.5 35.85 33.5 33.8333V8.16666C33.5 6.14999 31.85 4.49999 29.8333 4.49999ZM17 4.04166C17.7517 4.04166 18.375 4.66499 18.375 5.41666C18.375 6.16833 17.7517 6.79166 17 6.79166C16.2483 6.79166 15.625 6.16833 15.625 5.41666C15.625 4.66499 16.2483 4.04166 17 4.04166ZM29.8333 33.8333H4.16667V8.16666H29.8333V33.8333Z" fill="white"/>
</svg>
