<svg width="30" height="32" viewBox="0 0 30 32" fill="none" xmlns="http://www.w3.org/2000/svg">
<path d="M14.881 12.1905H17.8571V7.61905H22.3214V4.57143H17.8571V0H14.881V4.57143H10.4167V7.61905H14.881V12.1905ZM8.92857 25.9048C7.29167 25.9048 5.96726 27.2762 5.96726 28.9524C5.96726 30.6286 7.29167 32 8.92857 32C10.5655 32 11.9048 30.6286 11.9048 28.9524C11.9048 27.2762 10.5655 25.9048 8.92857 25.9048ZM23.8095 25.9048C22.1726 25.9048 20.8482 27.2762 20.8482 28.9524C20.8482 30.6286 22.1726 32 23.8095 32C25.4464 32 26.7857 30.6286 26.7857 28.9524C26.7857 27.2762 25.4464 25.9048 23.8095 25.9048ZM9.18155 20.9524L9.22619 20.7695L10.5655 18.2857H21.6518C22.7679 18.2857 23.75 17.661 24.256 16.7162L30 6.03429L27.4107 4.57143H27.3958L25.7589 7.61905L21.6518 15.2381H11.2054L11.0119 14.8267L7.67857 7.61905L6.26488 4.57143L4.86607 1.52381H0V4.57143H2.97619L8.33333 16.1371L6.3244 19.8705C6.08631 20.2971 5.95238 20.8 5.95238 21.3333C5.95238 23.0095 7.29167 24.381 8.92857 24.381H26.7857V21.3333H9.55357C9.36012 21.3333 9.18155 21.1657 9.18155 20.9524Z" fill="white"/>
</svg>
