<svg width="33" height="29" viewBox="0 0 33 29" fill="none" xmlns="http://www.w3.org/2000/svg">
<path d="M25.9875 19.9384H7.03312C6.80625 19.9384 6.62062 20.1423 6.62062 20.3915L6.61547 23.1103C6.61547 23.3595 6.80109 23.5634 7.02797 23.5634H25.9875C26.2144 23.5634 26.4 23.3595 26.4 23.1103V20.3915C26.4 20.1423 26.2144 19.9384 25.9875 19.9384ZM25.9875 25.3759H7.01766C6.79078 25.3759 6.60516 25.5798 6.60516 25.829L6.6 28.5478C6.6 28.797 6.78562 29.0009 7.0125 29.0009H25.9875C26.2144 29.0009 26.4 28.797 26.4 28.5478V25.829C26.4 25.5798 26.2144 25.3759 25.9875 25.3759ZM25.9875 14.5009H7.04344C6.81656 14.5009 6.63094 14.7048 6.63094 14.954L6.62578 17.6728C6.62578 17.922 6.81141 18.1259 7.03828 18.1259H25.9875C26.2144 18.1259 26.4 17.922 26.4 17.6728V14.954C26.4 14.7048 26.2144 14.5009 25.9875 14.5009ZM31.4789 6.62784L17.4487 0.210462C17.1472 0.0730399 16.8239 0.00230408 16.4974 0.00230408C16.1709 0.00230408 15.8477 0.0730399 15.5461 0.210462L1.52109 6.62784C0.603281 7.05265 0 8.0382 0 9.13702V28.5478C0 28.797 0.185625 29.0009 0.4125 29.0009H4.5375C4.76437 29.0009 4.95 28.797 4.95 28.5478V14.5009C4.95 13.504 5.70281 12.6884 6.63094 12.6884H26.3691C27.2972 12.6884 28.05 13.504 28.05 14.5009V28.5478C28.05 28.797 28.2356 29.0009 28.4625 29.0009H32.5875C32.8144 29.0009 33 28.797 33 28.5478V9.13702C33 8.0382 32.3967 7.05265 31.4789 6.62784Z" fill="white"/>
</svg>
