<svg width="32" height="33" viewBox="0 0 32 33" fill="none" xmlns="http://www.w3.org/2000/svg">
<path d="M15.873 12.5714H19.0476V7.85714H23.8095V4.71429H19.0476V0H15.873V4.71429H11.1111V7.85714H15.873V12.5714ZM9.52381 26.7143C7.77778 26.7143 6.36508 28.1286 6.36508 29.8571C6.36508 31.5857 7.77778 33 9.52381 33C11.2698 33 12.6984 31.5857 12.6984 29.8571C12.6984 28.1286 11.2698 26.7143 9.52381 26.7143ZM25.3968 26.7143C23.6508 26.7143 22.2381 28.1286 22.2381 29.8571C22.2381 31.5857 23.6508 33 25.3968 33C27.1429 33 28.5714 31.5857 28.5714 29.8571C28.5714 28.1286 27.1429 26.7143 25.3968 26.7143ZM9.79365 21.6071L9.84127 21.4186L11.2698 18.8571H23.0952C24.2857 18.8571 25.3333 18.2129 25.873 17.2386L32 6.22286L29.2381 4.71429H29.2222L27.4762 7.85714L23.0952 15.7143H11.9524L11.746 15.29L8.19048 7.85714L6.68254 4.71429L5.19048 1.57143H0V4.71429H3.1746L8.88889 16.6414L6.74603 20.4914C6.49206 20.9314 6.34921 21.45 6.34921 22C6.34921 23.7286 7.77778 25.1429 9.52381 25.1429H28.5714V22H10.1905C9.98413 22 9.79365 21.8271 9.79365 21.6071Z" fill="#006D7C"/>
</svg>
